<svg xmlns="http://www.w3.org/2000/svg" xmlns:xlink="http://www.w3.org/1999/xlink" width="500" zoomAndPan="magnify" viewBox="0 0 375 299.999988" height="400" preserveAspectRatio="xMidYMid meet" version="1.0"><rect x="-37.5" width="450" fill="#ffffff" y="-29.999999" height="359.999986" fill-opacity="1"/><rect x="-37.5" width="450" fill="#ffffff" y="-29.999999" height="359.999986" fill-opacity="1"/><rect x="-37.5" width="450" fill="#ffffff" y="-29.999999" height="359.999986" fill-opacity="1"/><path fill="#04a9e3" d="M 234.246094 302.726562 L 80.753906 302.726562 C 54.367188 302.726562 30.082031 288.292969 17.425781 265.089844 L 15.058594 260.75 C -0.0273438 233.085938 6.417969 198.605469 30.476562 178.292969 C 48.074219 163.433594 56.699219 140.472656 53.25 117.675781 L 51.957031 109.140625 C 46.890625 75.6875 62.9375 42.566406 92.304688 25.859375 L 109.957031 15.816406 C 142.25 -2.554688 183.25 7.734375 203.09375 39.1875 L 205.941406 43.699219 C 213.679688 55.960938 225.835938 64.761719 239.882812 68.273438 L 270.691406 75.976562 C 289 80.554688 298.613281 100.710938 290.667969 117.859375 C 285.234375 129.589844 287.933594 143.429688 297.945312 151.589844 C 305.480469 157.734375 314.015625 164.425781 322.128906 170.746094 C 342.40625 186.546875 347.53125 211.078125 335.371094 233.75 C 331.164062 241.59375 326.695312 249.574219 321.894531 257.542969 C 303.691406 287.746094 269.457031 302.726562 234.246094 302.726562 Z M 234.246094 302.726562 " fill-opacity="1" fill-rule="nonzero"/><path fill="#ffffff" d="M 258.328125 86.351562 C 259.144531 84.984375 260.894531 84.535156 262.230469 85.347656 L 270.167969 90.164062 C 271.503906 90.976562 271.925781 92.742188 271.109375 94.109375 C 270.4375 95.226562 270.597656 96.644531 271.410156 97.644531 C 273.683594 100.441406 275.386719 103.628906 276.472656 107.015625 C 276.867188 108.253906 277.957031 109.148438 279.242188 109.164062 C 280.8125 109.183594 282.054688 110.492188 282.015625 112.082031 L 281.78125 121.503906 C 281.738281 123.09375 280.4375 124.367188 278.867188 124.347656 C 277.585938 124.328125 276.453125 125.195312 275.996094 126.414062 C 275.371094 128.078125 274.589844 129.710938 273.644531 131.289062 C 272.699219 132.867188 271.628906 134.324219 270.460938 135.660156 C 269.601562 136.636719 269.371094 138.046875 269.984375 139.183594 C 270.734375 140.570312 270.226562 142.324219 268.847656 143.101562 L 260.683594 147.710938 C 259.300781 148.488281 257.574219 147.996094 256.824219 146.605469 C 256.210938 145.46875 254.914062 144.914062 253.644531 145.140625 C 250.164062 145.753906 246.566406 145.726562 243.046875 145.011719 C 241.792969 144.753906 240.472656 145.273438 239.800781 146.390625 C 238.984375 147.757812 237.234375 148.207031 235.898438 147.394531 L 227.960938 142.578125 C 226.625 141.765625 226.203125 140 227.019531 138.636719 C 227.691406 137.515625 227.53125 136.097656 226.71875 135.097656 C 224.445312 132.300781 222.746094 129.113281 221.660156 125.726562 C 221.261719 124.492188 220.171875 123.597656 218.886719 123.578125 C 217.316406 123.558594 216.074219 122.253906 216.113281 120.660156 L 216.351562 111.238281 C 216.390625 109.648438 217.691406 108.375 219.261719 108.394531 C 220.546875 108.414062 221.675781 107.550781 222.136719 106.328125 C 222.757812 104.664062 223.542969 103.03125 224.488281 101.453125 C 225.433594 99.875 226.5 98.417969 227.671875 97.085938 C 228.527344 96.105469 228.757812 94.695312 228.144531 93.558594 C 227.394531 92.171875 227.90625 90.417969 229.285156 89.640625 L 237.449219 85.03125 C 238.828125 84.253906 240.554688 84.746094 241.304688 86.136719 C 241.921875 87.273438 243.214844 87.828125 244.484375 87.601562 C 247.96875 86.988281 251.5625 87.015625 255.082031 87.730469 C 256.339844 87.988281 257.65625 87.46875 258.328125 86.351562 Z M 262.964844 124.808594 C 258.269531 132.648438 248.242188 135.226562 240.566406 130.566406 C 232.890625 125.90625 230.472656 115.773438 235.167969 107.933594 C 239.859375 100.09375 249.890625 97.515625 257.566406 102.175781 C 265.242188 106.835938 267.660156 116.96875 262.964844 124.808594 Z M 262.964844 124.808594 " fill-opacity="1" fill-rule="evenodd"/><path fill="#ffffff" d="M 257.082031 30.71875 C 257.488281 30.046875 258.351562 29.824219 259.011719 30.222656 L 262.9375 32.605469 C 263.597656 33.007812 263.804688 33.882812 263.402344 34.558594 C 263.070312 35.109375 263.148438 35.8125 263.550781 36.304688 C 264.675781 37.691406 265.515625 39.265625 266.050781 40.941406 C 266.25 41.550781 266.785156 41.992188 267.421875 42 C 268.199219 42.011719 268.8125 42.65625 268.792969 43.445312 L 268.675781 48.105469 C 268.65625 48.890625 268.011719 49.519531 267.238281 49.507812 C 266.601562 49.5 266.042969 49.929688 265.816406 50.53125 C 265.507812 51.355469 265.121094 52.164062 264.652344 52.941406 C 264.1875 53.722656 263.660156 54.445312 263.082031 55.105469 C 262.65625 55.585938 262.542969 56.285156 262.84375 56.847656 C 263.214844 57.53125 262.964844 58.402344 262.28125 58.785156 L 258.246094 61.0625 C 257.5625 61.449219 256.710938 61.203125 256.339844 60.515625 C 256.035156 59.953125 255.394531 59.679688 254.765625 59.792969 C 253.046875 60.097656 251.269531 60.082031 249.527344 59.726562 C 248.90625 59.601562 248.253906 59.859375 247.921875 60.410156 C 247.519531 61.085938 246.65625 61.308594 245.992188 60.90625 L 242.070312 58.527344 C 241.410156 58.125 241.199219 57.25 241.605469 56.574219 C 241.9375 56.023438 241.855469 55.320312 241.457031 54.828125 C 240.332031 53.441406 239.492188 51.867188 238.953125 50.191406 C 238.757812 49.582031 238.21875 49.136719 237.582031 49.128906 C 236.808594 49.121094 236.195312 48.472656 236.214844 47.6875 L 236.328125 43.027344 C 236.347656 42.242188 236.992188 41.613281 237.769531 41.621094 C 238.402344 41.632812 238.964844 41.203125 239.191406 40.597656 C 239.5 39.777344 239.886719 38.96875 240.351562 38.1875 C 240.820312 37.410156 241.347656 36.6875 241.925781 36.027344 C 242.351562 35.542969 242.464844 34.847656 242.160156 34.285156 C 241.789062 33.597656 242.042969 32.730469 242.722656 32.347656 L 246.761719 30.070312 C 247.441406 29.683594 248.296875 29.929688 248.667969 30.613281 C 248.972656 31.175781 249.613281 31.449219 250.238281 31.339844 C 251.960938 31.035156 253.738281 31.050781 255.476562 31.402344 C 256.097656 31.53125 256.75 31.273438 257.082031 30.71875 Z M 259.375 49.738281 C 257.054688 53.613281 252.097656 54.890625 248.300781 52.585938 C 244.507812 50.28125 243.3125 45.269531 245.632812 41.394531 C 247.953125 37.515625 252.910156 36.242188 256.707031 38.546875 C 260.5 40.851562 261.695312 45.859375 259.375 49.738281 Z M 259.375 49.738281 " fill-opacity="1" fill-rule="evenodd"/><path fill="#ffffff" d="M 32.492188 44.75 C 32.492188 41.128906 35.425781 38.191406 39.042969 38.191406 L 239.074219 38.191406 C 242.695312 38.191406 245.628906 41.128906 245.628906 44.75 L 245.628906 259.78125 C 245.628906 263.402344 242.695312 266.339844 239.074219 266.339844 L 39.042969 266.339844 C 35.425781 266.339844 32.492188 263.402344 32.492188 259.78125 Z M 32.492188 44.75 " fill-opacity="1" fill-rule="nonzero"/><path fill="#00141b" d="M 31.507812 44.75 C 31.507812 40.585938 34.882812 37.207031 39.042969 37.207031 L 239.074219 37.207031 C 243.238281 37.207031 246.609375 40.585938 246.609375 44.75 L 246.609375 259.78125 C 246.609375 263.945312 243.238281 267.324219 239.074219 267.324219 L 39.042969 267.324219 C 34.882812 267.324219 31.507812 263.945312 31.507812 259.78125 Z M 39.042969 39.175781 C 35.964844 39.175781 33.472656 41.671875 33.472656 44.75 L 33.472656 259.78125 C 33.472656 262.859375 35.964844 265.359375 39.042969 265.359375 L 239.074219 265.359375 C 242.152344 265.359375 244.644531 262.859375 244.644531 259.78125 L 244.644531 44.75 C 244.644531 41.671875 242.152344 39.175781 239.074219 39.175781 Z M 39.042969 39.175781 " fill-opacity="1" fill-rule="evenodd"/><path fill="#00141b" d="M 32.492188 44.75 C 32.492188 41.128906 35.425781 38.191406 39.042969 38.191406 L 239.074219 38.191406 C 242.695312 38.191406 245.628906 41.128906 245.628906 44.75 L 245.628906 57.859375 L 32.492188 57.859375 Z M 32.492188 44.75 " fill-opacity="1" fill-rule="nonzero"/><path fill="#ffffff" d="M 50.523438 48.167969 C 50.523438 50.527344 48.613281 52.445312 46.253906 52.445312 C 43.894531 52.445312 41.984375 50.527344 41.984375 48.167969 C 41.984375 45.804688 43.894531 43.890625 46.253906 43.890625 C 48.613281 43.890625 50.523438 45.804688 50.523438 48.167969 Z M 50.523438 48.167969 " fill-opacity="1" fill-rule="nonzero"/><path fill="#ffffff" d="M 64.761719 48.167969 C 64.761719 50.527344 62.847656 52.445312 60.492188 52.445312 C 58.132812 52.445312 56.21875 50.527344 56.21875 48.167969 C 56.21875 45.804688 58.132812 43.890625 60.492188 43.890625 C 62.847656 43.890625 64.761719 45.804688 64.761719 48.167969 Z M 64.761719 48.167969 " fill-opacity="1" fill-rule="nonzero"/><path fill="#ffffff" d="M 78.992188 48.167969 C 78.992188 50.527344 77.082031 52.445312 74.722656 52.445312 C 72.363281 52.445312 70.453125 50.527344 70.453125 48.167969 C 70.453125 45.804688 72.363281 43.890625 74.722656 43.890625 C 77.082031 43.890625 78.992188 45.804688 78.992188 48.167969 Z M 78.992188 48.167969 " fill-opacity="1" fill-rule="nonzero"/><path fill="#50c990" d="M 57.265625 75.226562 C 57.265625 74.140625 58.144531 73.261719 59.230469 73.261719 L 76.660156 73.261719 C 77.746094 73.261719 78.625 74.140625 78.625 75.226562 L 78.625 76.425781 C 78.625 77.511719 77.746094 78.394531 76.660156 78.394531 L 59.230469 78.394531 C 58.144531 78.394531 57.265625 77.511719 57.265625 76.425781 Z M 57.265625 75.226562 " fill-opacity="1" fill-rule="nonzero"/><path fill="#04a9e3" d="M 57.046875 91.292969 C 57.046875 90.207031 57.925781 89.328125 59.007812 89.328125 L 105.171875 89.328125 C 106.257812 89.328125 107.136719 90.207031 107.136719 91.292969 L 107.136719 92.277344 C 107.136719 93.363281 106.257812 94.246094 105.171875 94.246094 L 59.007812 94.246094 C 57.925781 94.246094 57.046875 93.363281 57.046875 92.277344 Z M 57.046875 91.292969 " fill-opacity="1" fill-rule="nonzero"/><path fill="#50c990" d="M 57.046875 239.789062 C 57.046875 238.703125 57.925781 237.820312 59.007812 237.820312 L 220.089844 237.820312 C 221.175781 237.820312 222.054688 238.703125 222.054688 239.789062 L 222.054688 242.738281 C 222.054688 243.824219 221.175781 244.707031 220.089844 244.707031 L 59.007812 244.707031 C 57.925781 244.707031 57.046875 243.824219 57.046875 242.738281 Z M 57.046875 239.789062 " fill-opacity="1" fill-rule="nonzero"/><path fill="#04a9e3" d="M 57.046875 239.789062 C 57.046875 238.703125 57.925781 237.820312 59.007812 237.820312 L 220.089844 237.820312 C 221.175781 237.820312 222.054688 238.703125 222.054688 239.789062 L 222.054688 242.738281 C 222.054688 243.824219 221.175781 244.707031 220.089844 244.707031 L 59.007812 244.707031 C 57.925781 244.707031 57.046875 243.824219 57.046875 242.738281 Z M 57.046875 239.789062 " fill-opacity="1" fill-rule="nonzero"/><path fill="#50c990" d="M 57.046875 239.789062 C 57.046875 238.703125 57.925781 237.820312 59.007812 237.820312 L 159.195312 237.820312 C 160.277344 237.820312 161.160156 238.703125 161.160156 239.789062 L 161.160156 242.738281 C 161.160156 243.824219 160.277344 244.707031 159.195312 244.707031 L 59.007812 244.707031 C 57.925781 244.707031 57.046875 243.824219 57.046875 242.738281 Z M 57.046875 239.789062 " fill-opacity="1" fill-rule="nonzero"/><path fill="#50c990" d="M 149.621094 131.398438 C 150.476562 129.976562 152.324219 129.515625 153.742188 130.375 L 162.175781 135.464844 C 163.59375 136.320312 164.054688 138.167969 163.195312 139.59375 C 162.496094 140.757812 162.675781 142.242188 163.539062 143.289062 C 165.964844 146.234375 167.785156 149.578125 168.957031 153.125 C 169.386719 154.417969 170.542969 155.359375 171.90625 155.386719 C 173.566406 155.417969 174.890625 156.792969 174.859375 158.457031 L 174.671875 168.304688 C 174.640625 169.964844 173.269531 171.289062 171.609375 171.257812 C 170.25 171.230469 169.058594 172.125 168.582031 173.398438 C 167.933594 175.136719 167.117188 176.835938 166.125 178.480469 C 165.136719 180.125 164.015625 181.640625 162.785156 183.027344 C 161.882812 184.042969 161.648438 185.515625 162.304688 186.707031 C 163.109375 188.164062 162.582031 189.996094 161.128906 190.800781 L 152.515625 195.5625 C 151.0625 196.367188 149.230469 195.835938 148.425781 194.378906 C 147.769531 193.1875 146.394531 192.601562 145.054688 192.828125 C 141.371094 193.445312 137.566406 193.394531 133.835938 192.621094 C 132.503906 192.34375 131.113281 192.878906 130.410156 194.042969 C 129.554688 195.464844 127.707031 195.925781 126.285156 195.066406 L 117.855469 189.976562 C 116.433594 189.121094 115.976562 187.269531 116.832031 185.847656 C 117.535156 184.683594 117.355469 183.199219 116.492188 182.148438 C 114.066406 179.207031 112.246094 175.863281 111.074219 172.316406 C 110.644531 171.023438 109.484375 170.082031 108.125 170.054688 C 106.460938 170.023438 105.140625 168.648438 105.171875 166.984375 L 105.359375 157.136719 C 105.390625 155.476562 106.761719 154.152344 108.421875 154.183594 C 109.78125 154.210938 110.972656 153.316406 111.449219 152.039062 C 112.097656 150.304688 112.914062 148.605469 113.90625 146.960938 C 114.894531 145.316406 116.015625 143.800781 117.246094 142.414062 C 118.148438 141.398438 118.382812 139.921875 117.726562 138.734375 C 116.921875 137.277344 117.449219 135.445312 118.902344 134.640625 L 127.511719 129.878906 C 128.96875 129.074219 130.800781 129.605469 131.605469 131.0625 C 132.261719 132.253906 133.636719 132.839844 134.976562 132.613281 C 138.660156 131.996094 142.464844 132.046875 146.191406 132.820312 C 147.523438 133.097656 148.917969 132.5625 149.621094 131.398438 Z M 154.78125 171.632812 C 149.863281 179.796875 139.269531 182.425781 131.113281 177.503906 C 122.960938 172.582031 120.332031 161.972656 125.25 153.808594 C 130.164062 145.644531 140.761719 143.015625 148.917969 147.9375 C 157.070312 152.859375 159.699219 163.46875 154.78125 171.632812 Z M 154.78125 171.632812 " fill-opacity="1" fill-rule="evenodd"/><path fill="#04a9e3" d="M 225.984375 76.542969 C 225.984375 74.914062 224.664062 73.59375 223.039062 73.59375 C 221.410156 73.59375 220.089844 74.914062 220.089844 76.542969 C 220.089844 78.171875 221.410156 79.492188 223.039062 79.492188 C 224.664062 79.492188 225.984375 78.171875 225.984375 76.542969 Z M 225.984375 76.542969 " fill-opacity="1" fill-rule="nonzero"/><path fill="#04a9e3" d="M 225.984375 91.292969 C 225.984375 89.664062 224.664062 88.34375 223.039062 88.34375 C 221.410156 88.34375 220.089844 89.664062 220.089844 91.292969 C 220.089844 92.921875 221.410156 94.246094 223.039062 94.246094 C 224.664062 94.246094 225.984375 92.921875 225.984375 91.292969 Z M 225.984375 91.292969 " fill-opacity="1" fill-rule="nonzero"/><path fill="#04a9e3" d="M 225.984375 106.046875 C 225.984375 104.417969 224.664062 103.09375 223.039062 103.09375 C 221.410156 103.09375 220.089844 104.417969 220.089844 106.046875 C 220.089844 107.675781 221.410156 108.996094 223.039062 108.996094 C 224.664062 108.996094 225.984375 107.675781 225.984375 106.046875 Z M 225.984375 106.046875 " fill-opacity="1" fill-rule="nonzero"/><path fill="#00141b" d="M 139.550781 108.011719 C 132.929688 108.011719 126.582031 109.183594 120.710938 111.328125 L 121.738281 113.855469 C 122.019531 114.546875 121.460938 115.289062 120.722656 115.207031 L 110.707031 114.089844 C 109.976562 114.011719 109.589844 113.183594 110 112.570312 L 115.933594 103.65625 C 116.371094 103 117.363281 103.097656 117.660156 103.828125 L 118.484375 105.859375 C 125.054688 103.433594 132.152344 102.113281 139.550781 102.113281 C 173.183594 102.113281 200.449219 129.410156 200.449219 163.082031 C 200.449219 175.808594 196.550781 187.632812 189.882812 197.414062 C 189.578125 197.863281 188.964844 197.96875 188.523438 197.652344 L 185.3125 195.382812 C 184.871094 195.070312 184.765625 194.457031 185.070312 194.007812 C 191.054688 185.195312 194.554688 174.550781 194.554688 163.082031 C 194.554688 132.667969 169.929688 108.011719 139.550781 108.011719 Z M 95.375 130.265625 C 95.699219 129.832031 95.621094 129.214844 95.191406 128.882812 L 92.082031 126.480469 C 91.652344 126.148438 91.03125 126.226562 90.707031 126.664062 C 83.136719 136.824219 78.65625 149.433594 78.65625 163.082031 C 78.65625 196.757812 105.917969 224.054688 139.550781 224.054688 C 146.886719 224.054688 153.925781 222.753906 160.445312 220.371094 L 161.035156 222.074219 C 161.292969 222.820312 162.28125 222.972656 162.75 222.339844 L 169.144531 213.75 C 169.582031 213.160156 169.242188 212.3125 168.515625 212.191406 L 158.570312 210.554688 C 157.835938 210.433594 157.238281 211.144531 157.484375 211.847656 L 158.507812 214.796875 C 152.601562 216.96875 146.21875 218.152344 139.550781 218.152344 C 109.171875 218.152344 84.546875 193.496094 84.546875 163.082031 C 84.546875 150.78125 88.574219 139.429688 95.375 130.265625 Z M 95.375 130.265625 " fill-opacity="1" fill-rule="evenodd"/><path fill="#00141b" d="M 21.039062 267.941406 C 19.476562 281.84375 23.765625 296.066406 26.304688 301.414062 L 34.53125 301.414062 C 34.242188 284.558594 28.257812 272.609375 23.863281 267.054688 C 22.921875 265.863281 21.207031 266.429688 21.039062 267.941406 Z M 21.039062 267.941406 " fill-opacity="1" fill-rule="nonzero"/><path fill="#ffffff" d="M 45.476562 213.90625 C 25.554688 238.148438 26.363281 281.546875 29.335938 300.546875 L 49.691406 300.546875 C 65.050781 247.539062 55.675781 221.488281 48.019531 213.726562 C 47.296875 212.992188 46.132812 213.113281 45.476562 213.90625 Z M 45.476562 213.90625 " fill-opacity="1" fill-rule="nonzero"/><path fill="#00141b" d="M 47.320312 214.417969 C 47.054688 214.148438 46.566406 214.132812 46.238281 214.53125 C 36.449219 226.441406 31.703125 243.132812 29.796875 259.308594 C 27.945312 274.996094 28.78125 290.078125 30.179688 299.5625 L 48.953125 299.5625 C 56.429688 273.503906 57.863281 254.09375 56.507812 240.265625 C 55.140625 226.285156 50.933594 218.078125 47.320312 214.417969 Z M 44.71875 213.28125 C 45.695312 212.09375 47.539062 211.835938 48.71875 213.035156 C 52.761719 217.132812 57.070312 225.835938 58.464844 240.074219 C 59.859375 254.335938 58.339844 274.230469 50.636719 300.820312 L 50.429688 301.527344 L 28.496094 301.527344 L 28.367188 300.699219 C 26.867188 291.117188 25.917969 275.429688 27.847656 259.078125 C 29.773438 242.742188 34.585938 225.613281 44.71875 213.28125 Z M 44.71875 213.28125 " fill-opacity="1" fill-rule="evenodd"/><path fill="#00141b" d="M 68.441406 248.722656 C 52.054688 263.089844 45.9375 289.773438 44.925781 301.414062 L 58.667969 301.414062 C 71.644531 282 72.679688 260.417969 71.332031 249.808594 C 71.152344 248.382812 69.519531 247.773438 68.441406 248.722656 Z M 68.441406 248.722656 " fill-opacity="1" fill-rule="nonzero"/><path fill="#00141b" d="M 46.222656 239.933594 L 47.636719 226.5 L 45.683594 226.292969 L 42.460938 256.921875 L 36.65625 247.972656 L 35.007812 249.046875 L 42.136719 260.027344 L 39.429688 285.761719 L 33.554688 278.667969 L 32.042969 279.925781 L 39.140625 288.496094 L 37.886719 300.441406 L 39.839844 300.648438 L 42.394531 276.363281 L 50.273438 270.550781 L 49.109375 268.964844 L 42.671875 273.714844 L 45.949219 242.550781 L 52.859375 237.601562 L 51.71875 236.003906 Z M 46.222656 239.933594 " fill-opacity="1" fill-rule="evenodd"/><path fill="#ffffff" d="M 64.121094 267.949219 L 67.503906 258.824219 L 65.660156 258.140625 L 58.269531 278.078125 L 56.6875 273.347656 L 54.824219 273.972656 L 57.183594 281.015625 L 50.070312 300.203125 L 51.914062 300.886719 L 55.390625 291.503906 L 61.808594 288.421875 L 60.960938 286.648438 L 56.375 288.851562 L 63.179688 270.496094 L 67.835938 268.492188 L 67.0625 266.6875 Z M 64.121094 267.949219 " fill-opacity="1" fill-rule="evenodd"/><path fill="#50c990" d="M 318.648438 74.785156 L 322.714844 71.285156 C 323.4375 70.660156 324.535156 71.332031 324.308594 72.261719 L 323.066406 77.355469 C 322.992188 77.664062 323.070312 77.988281 323.277344 78.230469 L 327.011719 82.582031 C 327.613281 83.28125 327.007812 84.351562 326.097656 84.191406 L 320.394531 83.183594 C 320.117188 83.132812 319.832031 83.207031 319.609375 83.382812 L 314.632812 87.351562 C 313.894531 87.941406 312.832031 87.25 313.070312 86.332031 L 314.585938 80.554688 C 314.660156 80.273438 314.605469 79.976562 314.4375 79.738281 L 310.6875 74.433594 C 310.132812 73.65625 310.90625 72.625 311.808594 72.9375 L 317.6875 74.96875 C 318.015625 75.082031 318.382812 75.011719 318.648438 74.785156 Z M 318.648438 74.785156 " fill-opacity="1" fill-rule="nonzero"/><path fill="#50c990" d="M 336.109375 138.691406 L 337.777344 138.238281 C 338.699219 137.984375 339.402344 139.066406 338.796875 139.808594 L 337.738281 141.113281 C 337.539062 141.355469 337.46875 141.683594 337.550781 141.992188 L 338.105469 144.019531 C 338.347656 144.910156 337.339844 145.617188 336.585938 145.078125 L 334.824219 143.824219 C 334.597656 143.660156 334.308594 143.605469 334.03125 143.667969 L 331.679688 144.214844 C 330.757812 144.429688 330.09375 143.347656 330.703125 142.625 L 332.109375 140.960938 C 332.296875 140.738281 332.375 140.445312 332.324219 140.15625 L 331.90625 137.742188 C 331.742188 136.800781 332.878906 136.203125 333.558594 136.871094 L 335.160156 138.445312 C 335.410156 138.691406 335.769531 138.785156 336.109375 138.691406 Z M 336.109375 138.691406 " fill-opacity="1" fill-rule="nonzero"/><path fill="#ffffff" d="M 173.671875 196.476562 L 179.570312 302.09375 L 207.582031 302.09375 L 201.195312 195.003906 C 205.78125 191.402344 216.328125 180.855469 213.972656 165.53125 C 211.324219 148.34375 200.636719 143.648438 195.121094 141.863281 C 194.523438 141.667969 193.949219 142.1875 194.054688 142.804688 L 198.738281 169.949219 L 186.449219 180.757812 L 171.707031 174.863281 L 167.050781 148.328125 C 166.9375 147.679688 166.15625 147.414062 165.675781 147.863281 C 146.074219 166.082031 157.265625 194.066406 173.671875 196.476562 Z M 173.671875 196.476562 " fill-opacity="1" fill-rule="nonzero"/><path fill="#00141b" d="M 194.890625 142.675781 L 199.652344 170.273438 L 186.621094 181.734375 L 170.957031 175.472656 L 166.222656 148.507812 C 156.6875 157.386719 154.664062 168.601562 156.992188 177.890625 C 159.335938 187.25 166.035156 194.5 173.796875 195.640625 L 174.480469 195.742188 L 180.371094 301.246094 L 206.683594 301.246094 L 200.324219 194.613281 L 200.671875 194.339844 C 205.191406 190.789062 215.421875 180.515625 213.136719 165.65625 C 211.839844 157.234375 208.585938 151.9375 205.035156 148.53125 C 201.488281 145.125 197.589844 143.550781 194.890625 142.675781 Z M 193.222656 142.949219 C 193.011719 141.730469 194.15625 140.660156 195.382812 141.058594 C 198.195312 141.96875 202.382812 143.640625 206.207031 147.308594 C 210.042969 150.992188 213.457031 156.636719 214.808594 165.402344 C 217.179688 180.816406 206.886719 191.488281 202.0625 195.390625 L 208.480469 302.9375 L 178.769531 302.9375 L 172.867188 197.199219 C 164.535156 195.621094 157.738281 187.835938 155.351562 178.304688 C 152.882812 168.453125 155.058594 156.578125 165.101562 147.242188 C 166.078125 146.335938 167.65625 146.882812 167.882812 148.179688 L 172.460938 174.253906 L 186.28125 179.78125 L 197.824219 169.628906 Z M 193.222656 142.949219 " fill-opacity="1" fill-rule="evenodd"/><path fill="#cbcdcd" d="M 200.449219 231.355469 C 201.300781 231.140625 203.234375 231.355469 203.890625 230.371094 L 203.398438 221.039062 C 204.707031 221.53125 205.777344 223.027344 207.328125 224.96875 C 209.292969 227.425781 213.226562 229.0625 215.191406 230.371094 L 211.75 240.199219 C 208.3125 240.6875 205.855469 241.015625 204.378906 240.6875 L 204.378906 237.25 C 202.90625 237.742188 199.957031 237.429688 197.5 236.757812 C 192.09375 235.285156 193.570312 230.371094 194.554688 230.371094 C 195.535156 230.371094 198.484375 231.847656 200.449219 231.355469 Z M 200.449219 231.355469 " fill-opacity="1" fill-rule="nonzero"/><path fill="#cbcdcd" d="M 294.414062 155.816406 L 297.75 170.410156 C 297.351562 173.027344 294.394531 175.875 288.46875 178.527344 C 282.546875 181.175781 274.304688 176.878906 271.652344 175.628906 L 272.816406 161.296875 C 269.183594 161.351562 263.199219 151.488281 263.851562 141.265625 C 264.730469 127.558594 270.582031 118.921875 282.9375 119.667969 C 292.207031 120.226562 298.5625 128.878906 299.742188 136.1875 C 301.09375 144.554688 297.636719 153.679688 294.414062 155.816406 Z M 294.414062 155.816406 " fill-opacity="1" fill-rule="nonzero"/><path fill="#00141b" d="M 289.449219 147.0625 C 291.152344 150.480469 294.238281 157.632812 295.054688 158.519531 C 298.019531 155.800781 305.042969 148.03125 307.308594 139.078125 C 309.574219 130.121094 303.09375 126.15625 299.570312 125.292969 C 300.246094 124.46875 298.761719 120.21875 287.417969 109.824219 C 273.238281 96.828125 258.109375 110.914062 262.15625 121.121094 C 265.390625 129.289062 278.085938 129.847656 284.027344 129.109375 C 285.148438 132.785156 283.292969 146.15625 286.722656 140.96875 C 290.148438 135.777344 293.828125 134.652344 295.054688 140.898438 C 296.035156 145.894531 291.726562 147.089844 289.449219 147.0625 Z M 289.449219 147.0625 " fill-opacity="1" fill-rule="nonzero"/><path fill="#00141b" d="M 283.570312 159.621094 C 277.488281 161.921875 273.867188 161.695312 272.816406 161.292969 L 272.230469 165.773438 C 276.726562 164.601562 282.28125 161.417969 283.570312 159.621094 Z M 283.570312 159.621094 " fill-opacity="1" fill-rule="nonzero"/><path fill="#50c990" d="M 285.425781 171.886719 C 278.886719 171.886719 273.269531 167.566406 270.957031 165.089844 C 270.753906 164.871094 270.449219 164.765625 270.152344 164.828125 C 258.75 167.191406 251.308594 173.945312 246.671875 180.757812 C 243.324219 185.675781 236.84375 198.441406 230.457031 223.988281 C 224.066406 223.988281 217.1875 223.988281 213.746094 225.460938 C 211 226.636719 208.339844 238.722656 209.324219 243.636719 C 210.109375 247.566406 223.082031 249.175781 226.03125 251.207031 C 223.441406 273.226562 222.882812 296.660156 225.808594 302.207031 C 225.9375 302.453125 226.191406 302.585938 226.472656 302.589844 C 230.558594 302.625 262.09375 302.882812 276.359375 302.585938 L 360.746094 302.585938 C 361.082031 302.585938 361.382812 302.394531 361.515625 302.082031 C 365.71875 292.320312 373.707031 271.621094 373.707031 262.992188 C 373.707031 252.023438 355.097656 208.617188 342.691406 189.058594 C 332.925781 173.667969 310.046875 166.554688 299.308594 164.8125 C 298.984375 164.761719 298.675781 164.90625 298.476562 165.167969 C 296.621094 167.652344 291.898438 171.886719 285.425781 171.886719 Z M 285.425781 171.886719 " fill-opacity="1" fill-rule="nonzero"/><path fill="#00141b" d="M 334.101562 266.332031 C 334.480469 272.4375 330.125 293.046875 327.894531 302.585938 L 322.648438 302.585938 C 325.351562 292.886719 330.664062 272.34375 330.28125 267.765625 C 329.898438 263.183594 322.167969 242.640625 318.351562 232.941406 C 323.441406 241.527344 333.71875 260.226562 334.101562 266.332031 Z M 334.101562 266.332031 " fill-opacity="1" fill-rule="nonzero"/><path fill="#00141b" d="M 364.640625 262.992188 C 363.875 253.835938 365.914062 243.59375 367.027344 239.621094 C 369.09375 244.550781 373.421875 256.125 374.183594 262.992188 C 374.949219 269.863281 371.640625 278.257812 369.890625 281.597656 C 368.457031 279.210938 365.402344 272.152344 364.640625 262.992188 Z M 364.640625 262.992188 " fill-opacity="1" fill-rule="nonzero"/><path fill="#00141b" d="M 223.082031 250.023438 L 226.03125 251.003906 C 226.820312 245.894531 228.324219 236.429688 228.980469 232.335938 Z M 223.082031 250.023438 " fill-opacity="1" fill-rule="nonzero"/><path fill="#50c990" d="M 64.902344 135.546875 C 64.902344 153.472656 50.390625 168 32.492188 168 C 14.589844 168 0.078125 153.472656 0.078125 135.546875 C 0.078125 117.625 14.589844 103.09375 32.492188 103.09375 C 50.390625 103.09375 64.902344 117.625 64.902344 135.546875 Z M 64.902344 135.546875 " fill-opacity="1" fill-rule="nonzero"/><path fill="#ffffff" d="M 39.855469 133.871094 C 39.855469 133.457031 40.195312 133.117188 40.609375 133.117188 L 45.644531 133.117188 C 46.277344 133.117188 46.628906 132.382812 46.230469 131.886719 L 33.078125 115.621094 C 32.773438 115.246094 32.207031 115.246094 31.90625 115.621094 L 18.75 131.886719 C 18.351562 132.382812 18.703125 133.117188 19.335938 133.117188 L 24.371094 133.117188 C 24.785156 133.117188 25.125 133.457031 25.125 133.871094 L 25.125 155.445312 C 25.125 155.863281 25.460938 156.199219 25.878906 156.199219 L 39.101562 156.199219 C 39.519531 156.199219 39.855469 155.863281 39.855469 155.445312 Z M 39.855469 133.871094 " fill-opacity="1" fill-rule="evenodd"/></svg>